<svg xmlns="http://www.w3.org/2000/svg" width="490" height="360" viewBox="0 0 490 360"><title>artificial-intelligence-dev</title><polyline points="342.4 25.2 367 25.2 423.7 80.8 423.7 122.1" fill="none" stroke="#ff492c" stroke-miterlimit="10" stroke-width="2.53"/><polyline points="446.9 134.6 456.9 143.5 456.9 192 443.7 206.6 419.1 206.6" fill="none" stroke="#ff492c" stroke-miterlimit="10" stroke-width="2.53"/><polyline points="429.5 185.6 419.1 174.9 357.4 174.9 344.9 186.7" fill="none" stroke="#ff492c" stroke-miterlimit="10" stroke-width="2.53"/><polyline points="423.7 154.9 338.9 154.9 320.3 174.9 306.4 174.9" fill="none" stroke="#ff492c" stroke-miterlimit="10" stroke-width="2.53"/><polyline points="395.9 93.6 395.9 122.1 383.1 134.6 375.6 134.6" fill="none" stroke="#ff492c" stroke-miterlimit="10" stroke-width="2.53"/><polyline points="352.8 59.7 358.5 65.8 358.5 107.5 340.3 127.1 306.4 127.1" fill="none" stroke="#ff492c" stroke-miterlimit="10" stroke-width="2.53"/><polyline points="317.8 70.8 317.8 29.4 290.7 2.3 215.5 2.3 164.9 51.9" fill="none" stroke="#ff492c" stroke-miterlimit="10" stroke-width="2.53"/><polyline points="167 16.2 139.6 16.2 114.2 39.1 114.2 70.8" fill="none" stroke="#ff492c" stroke-miterlimit="10" stroke-width="2.53"/><polyline points="140.6 45.7 133.7 52.6 133.7 82.9 156.7 105.9" fill="none" stroke="#ff492c" stroke-miterlimit="10" stroke-width="2.53"/><line x1="181.6" y1="80.1" x2="195.5" y2="93.6" fill="none" stroke="#ff492c" stroke-miterlimit="10" stroke-width="2.53"/><polyline points="217.6 43.5 217.6 75.8 231.7 89.9" fill="none" stroke="#ff492c" stroke-miterlimit="10" stroke-width="2.53"/><line x1="252" y1="27.8" x2="252" y2="89.9" fill="none" stroke="#ff492c" stroke-miterlimit="10" stroke-width="2.53"/><polyline points="287.5 38.7 279 47.6 279 89.9" fill="none" stroke="#ff492c" stroke-miterlimit="10" stroke-width="2.53"/><polyline points="87 65.1 66.6 65.1 47 84.9 47 100" fill="none" stroke="#ff492c" stroke-miterlimit="10" stroke-width="2.53"/><polyline points="79.7 93.4 101.2 93.4 145.2 136.9 191.6 136.9" fill="none" stroke="#ff492c" stroke-miterlimit="10" stroke-width="2.53"/><polyline points="96.4 119.8 53.1 119.8 38.8 133.2 38.8 162.1" fill="none" stroke="#ff492c" stroke-miterlimit="10" stroke-width="2.53"/><polyline points="88 141.9 107.5 162.1 191.6 162.1" fill="none" stroke="#ff492c" stroke-miterlimit="10" stroke-width="2.53"/><polyline points="59.2 161.3 59.2 196.8 84.3 221.8 111.4 221.8 119.9 230.4" fill="none" stroke="#ff492c" stroke-miterlimit="10" stroke-width="2.53"/><polyline points="85.7 174.9 104 192.6 128.3 192.6" fill="none" stroke="#ff492c" stroke-miterlimit="10" stroke-width="2.53"/><polyline points="168.4 194.7 151.7 211.5 151.7 249.2 171.3 269.1 193.4 269.1" fill="none" stroke="#ff492c" stroke-miterlimit="10" stroke-width="2.53"/><polyline points="174.4 241.1 174.4 230.4 201.7 202.8" fill="none" stroke="#ff492c" stroke-miterlimit="10" stroke-width="2.53"/><polyline points="235.7 202.8 235.7 223 229.8 230.4" fill="none" stroke="#ff492c" stroke-miterlimit="10" stroke-width="2.53"/><polyline points="266.6 202.8 266.6 236.8 251.4 252.1" fill="none" stroke="#ff492c" stroke-miterlimit="10" stroke-width="2.53"/><polyline points="199.1 246.1 233.8 281 269 281 293.9 257.5 293.9 231.9" fill="none" stroke="#ff492c" stroke-miterlimit="10" stroke-width="2.53"/><polyline points="304.6 197.1 343.8 234.4 343.8 266.3" fill="none" stroke="#ff492c" stroke-miterlimit="10" stroke-width="2.53"/><polyline points="315.8 252.1 315.8 282.4 342.4 308.8 347.2 308.8" fill="none" stroke="#ff492c" stroke-miterlimit="10" stroke-width="2.53"/><polyline points="358.5 223 370.7 234.7 370.7 341.4 378.5 348.5" fill="none" stroke="#ff492c" stroke-miterlimit="10" stroke-width="2.53"/><polyline points="395.9 324.8 403.5 317.9 403.5 287.2" fill="none" stroke="#ff492c" stroke-miterlimit="10" stroke-width="2.53"/><polyline points="394.5 260.6 412.8 260.6 430.4 243.2 430.4 232.8" fill="none" stroke="#ff492c" stroke-miterlimit="10" stroke-width="2.53"/><line x1="375.6" y1="200.9" x2="399.7" y2="225.9" fill="none" stroke="#ff492c" stroke-miterlimit="10" stroke-width="2.53"/><circle cx="74" cy="92.5" r="5.7" fill="#ffd200"/><circle cx="102.1" cy="119.8" r="5.7" fill="#5a39a2"/><circle cx="84.8" cy="138" r="5.7" fill="#23cca2"/><circle cx="82.3" cy="171" r="5.7" fill="#5a39a2"/><circle cx="59.2" cy="156.7" r="5.7" fill="#ffd200"/><circle cx="133.7" cy="192.6" r="5.7" fill="#ffd200"/><circle cx="38.8" cy="167" r="5.7" fill="#5a39a2"/><circle cx="47" cy="105.9" r="5.7" fill="#5a39a2"/><circle cx="91.4" cy="65.4" r="5.7" fill="#23cca2"/><circle cx="114.2" cy="75.8" r="5.7" fill="#ffd200"/><circle cx="172.5" cy="16.2" r="5.7" fill="#5a39a2"/><circle cx="144.1" cy="42.3" r="5.7" fill="#23cca2"/><circle cx="161.3" cy="55.1" r="5.7" fill="#ffd200"/><circle cx="178.2" cy="75.8" r="5.7" fill="#23cca2"/><circle cx="195.5" cy="93.6" r="5.7" fill="#ffd200"/><circle cx="195.5" cy="136.8" r="5.7" fill="#5a39a2"/><circle cx="195.5" cy="161.3" r="5.7" fill="#ffd200"/><circle cx="231.5" cy="93.6" r="5.7" fill="#5a39a2"/><circle cx="252" cy="93.6" r="5.7" fill="#23cca2"/><circle cx="279.2" cy="93.6" r="5.7" fill="#ffd200"/><circle cx="302.4" cy="127" r="5.7" fill="#23cca2"/><circle cx="302.4" cy="174.9" r="5.7" fill="#ffd200"/><circle cx="302.4" cy="192.6" r="5.7" fill="#5a39a2"/><circle cx="266.6" cy="197.1" r="5.7" fill="#23cca2"/><circle cx="235.7" cy="197.1" r="5.7" fill="#5a39a2"/><circle cx="201.7" cy="198.2" r="5.7" fill="#ffd200"/><circle cx="159.2" cy="109.5" r="5.7" fill="#5a39a2"/><circle cx="217.6" cy="38.7" r="5.7" fill="#ffd200"/><circle cx="252" cy="23.2" r="5.7" fill="#5a39a2"/><circle cx="291" cy="36.6" r="5.7" fill="#23cca2"/><circle cx="317.8" cy="75.8" r="5.7" fill="#5a39a2"/><circle cx="349.5" cy="56.3" r="5.7" fill="#ffd200"/><circle cx="338.1" cy="25.2" r="5.7" fill="#5a39a2"/><circle cx="395.9" cy="88.3" r="5.7" fill="#23cca2"/><circle cx="370.8" cy="132.8" r="5.7" fill="#5a39a2"/><circle cx="423.7" cy="127" r="5.7" fill="#ffd200"/><circle cx="443.7" cy="131.2" r="5.7" fill="#5a39a2"/><circle cx="428.3" cy="154.9" r="5.7" fill="#23cca2"/><circle cx="431.1" cy="189.8" r="5.7" fill="#ffd200"/><circle cx="372.9" cy="197.1" r="5.7" fill="#5a39a2"/><circle cx="413.4" cy="206.6" r="5.7" fill="#5a39a2"/><circle cx="402.7" cy="228.7" r="5.7" fill="#ffd200"/><circle cx="430.4" cy="228.7" r="5.7" fill="#23cca2"/><circle cx="356.6" cy="219.1" r="5.7" fill="#ffd200"/><circle cx="388.8" cy="260.6" r="5.7" fill="#23cca2"/><circle cx="343.8" cy="270.9" r="5.7" fill="#23cca2"/><circle cx="315.8" cy="246.8" r="5.7" fill="#23cca2"/><circle cx="293.9" cy="227.1" r="5.7" fill="#ffd200"/><circle cx="247.9" cy="254.9" r="5.7" fill="#ffd200"/><circle cx="226" cy="233.1" r="5.7" fill="#23cca2"/><circle cx="124.5" cy="233.1" r="5.7" fill="#23cca2"/><circle cx="195.5" cy="242.4" r="5.7" fill="#5a39a2"/><circle cx="198.3" cy="269.1" r="5.7" fill="#5a39a2"/><circle cx="174.4" cy="245.2" r="5.7" fill="#ffd200"/><circle cx="171.7" cy="191.4" r="5.7" fill="#23cca2"/><circle cx="350.9" cy="308.8" r="5.7" fill="#5a39a2"/><circle cx="383.1" cy="352" r="5.7" fill="#5a39a2"/><circle cx="392.9" cy="328" r="5.7" fill="#ffd200"/><circle cx="403.5" cy="282.3" r="5.7" fill="#ffd200"/><circle cx="342.4" cy="189.8" r="5.7" fill="#23cca2"/><rect width="490" height="360" fill="none"/></svg>